<?xml version="1.0" encoding="UTF-8" standalone="no"?>
<!-- Created with Inkscape (http://www.inkscape.org/) -->

<svg
   xmlns:dc="http://purl.org/dc/elements/1.1/"
   xmlns:cc="http://creativecommons.org/ns#"
   xmlns:rdf="http://www.w3.org/1999/02/22-rdf-syntax-ns#"
   xmlns:svg="http://www.w3.org/2000/svg"
   xmlns="http://www.w3.org/2000/svg"
   xmlns:xlink="http://www.w3.org/1999/xlink"
   xmlns:sodipodi="http://sodipodi.sourceforge.net/DTD/sodipodi-0.dtd"
   xmlns:inkscape="http://www.inkscape.org/namespaces/inkscape"
   width="128"
   height="128"
   id="svg2"
   version="1.1"
   inkscape:version="0.48.2 r9819"
   sodipodi:docname="tray.svg"
   inkscape:export-filename="/home/saber/.config/fcitx/skin/default/inactive.png"
   inkscape:export-xdpi="90"
   inkscape:export-ydpi="90">
  <defs
     id="defs4">
    <linearGradient
       id="linearGradient7886">
      <stop
         style="stop-color:#ececec;stop-opacity:1;"
         offset="0"
         id="stop7888" />
      <stop
         id="stop7890"
         offset="0.81879193"
         style="stop-color:#e8e8e8;stop-opacity:0.71505374;" />
      <stop
         style="stop-color:#e8e8e8;stop-opacity:1;"
         offset="1"
         id="stop7892" />
    </linearGradient>
    <linearGradient
       id="linearGradient7717">
      <stop
         id="stop7719"
         offset="0"
         style="stop-color:#ffffff;stop-opacity:1;" />
      <stop
         style="stop-color:#ffffff;stop-opacity:0.71505374;"
         offset="0.81879193"
         id="stop7723" />
      <stop
         id="stop7721"
         offset="1"
         style="stop-color:#ffffff;stop-opacity:1;" />
    </linearGradient>
    <linearGradient
       inkscape:collect="always"
       xlink:href="#linearGradient5008-0"
       id="linearGradient5765-0"
       gradientUnits="userSpaceOnUse"
       x1="3.499999"
       y1="1028.3622"
       x2="44.5"
       y2="1028.3622" />
    <linearGradient
       id="linearGradient5008-0">
      <stop
         style="stop-color:#000000;stop-opacity:0.15686275;"
         offset="0"
         id="stop5010-0" />
      <stop
         id="stop5016-4"
         offset="0.5"
         style="stop-color:#000000;stop-opacity:0.39215687;" />
      <stop
         style="stop-color:#000000;stop-opacity:0.15686275;"
         offset="1"
         id="stop5012-7" />
    </linearGradient>
    <linearGradient
       inkscape:collect="always"
       xlink:href="#linearGradient5008-1"
       id="linearGradient5765-3"
       gradientUnits="userSpaceOnUse"
       x1="3.499999"
       y1="1028.3622"
       x2="44.5"
       y2="1028.3622" />
    <linearGradient
       id="linearGradient5008-1">
      <stop
         style="stop-color:#000000;stop-opacity:0.15686275;"
         offset="0"
         id="stop5010-4" />
      <stop
         id="stop5016-2"
         offset="0.5"
         style="stop-color:#000000;stop-opacity:0.39215687;" />
      <stop
         style="stop-color:#000000;stop-opacity:0.15686275;"
         offset="1"
         id="stop5012-0" />
    </linearGradient>
    <linearGradient
       inkscape:collect="always"
       xlink:href="#linearGradient5008-1"
       id="linearGradient7780"
       gradientUnits="userSpaceOnUse"
       x1="1"
       y1="11"
       x2="21"
       y2="11"
       gradientTransform="matrix(5,0,0,5,10.000002,932.3623)" />
    <linearGradient
       inkscape:collect="always"
       xlink:href="#linearGradient5008-1-1"
       id="linearGradient7780-4"
       gradientUnits="userSpaceOnUse"
       x1="1"
       y1="11"
       x2="21"
       y2="11" />
    <linearGradient
       id="linearGradient5008-1-1">
      <stop
         style="stop-color:#000000;stop-opacity:0.15686275;"
         offset="0"
         id="stop5010-4-4" />
      <stop
         id="stop5016-2-2"
         offset="0.5"
         style="stop-color:#000000;stop-opacity:0.39215687;" />
      <stop
         style="stop-color:#000000;stop-opacity:0.15686275;"
         offset="1"
         id="stop5012-0-0" />
    </linearGradient>
    <linearGradient
       inkscape:collect="always"
       xlink:href="#linearGradient5008-1-1"
       id="linearGradient7832"
       gradientUnits="userSpaceOnUse"
       gradientTransform="translate(34,-1)"
       x1="1"
       y1="11"
       x2="21"
       y2="11" />
    <linearGradient
       inkscape:collect="always"
       xlink:href="#linearGradient5008-1-1"
       id="linearGradient7847"
       gradientUnits="userSpaceOnUse"
       gradientTransform="translate(51,1030.3622)"
       x1="1"
       y1="11"
       x2="21"
       y2="11" />
    <linearGradient
       inkscape:collect="always"
       xlink:href="#linearGradient5008-1-1"
       id="linearGradient7849"
       gradientUnits="userSpaceOnUse"
       gradientTransform="translate(44,1017.3622)"
       x1="1"
       y1="11"
       x2="21"
       y2="11" />
    <linearGradient
       inkscape:collect="always"
       xlink:href="#linearGradient7717"
       id="linearGradient3824"
       x1="20.125"
       y1="62.90625"
       x2="109.875"
       y2="62.90625"
       gradientUnits="userSpaceOnUse" />
  </defs>
  <sodipodi:namedview
     id="base"
     pagecolor="#216ccf"
     bordercolor="#666666"
     borderopacity="1.0"
     inkscape:pageopacity="0.65490196"
     inkscape:pageshadow="2"
     inkscape:zoom="3.9999998"
     inkscape:cx="76.999992"
     inkscape:cy="51.532532"
     inkscape:document-units="px"
     inkscape:current-layer="layer1"
     showgrid="true"
     inkscape:window-width="1366"
     inkscape:window-height="713"
     inkscape:window-x="-2"
     inkscape:window-y="-3"
     inkscape:window-maximized="1"
     inkscape:snap-global="true"
     inkscape:snap-to-guides="false">
    <inkscape:grid
       empspacing="5"
       visible="true"
       enabled="true"
       snapvisiblegridlinesonly="true"
       type="xygrid"
       id="grid3981" />
  </sodipodi:namedview>
  <metadata
     id="metadata7">
    <rdf:RDF>
      <cc:Work
         rdf:about="">
        <dc:format>image/svg+xml</dc:format>
        <dc:type
           rdf:resource="http://purl.org/dc/dcmitype/StillImage" />
        <dc:title />
      </cc:Work>
    </rdf:RDF>
  </metadata>
  <g
     inkscape:label="Layer 1"
     inkscape:groupmode="layer"
     id="layer1"
     transform="translate(0,-924.3622)">
    <path
       style="font-size:medium;font-style:normal;font-variant:normal;font-weight:normal;font-stretch:normal;text-indent:0;text-align:start;text-decoration:none;line-height:normal;letter-spacing:normal;word-spacing:normal;text-transform:none;direction:ltr;block-progression:tb;writing-mode:lr-tb;text-anchor:start;baseline-shift:baseline;color:#000000;fill:url(#linearGradient7780);fill-opacity:1;fill-rule:nonzero;stroke:none;stroke-width:0.89999998;marker:none;visibility:visible;display:inline;overflow:visible;enable-background:accumulate;font-family:Sans;-inkscape-font-specification:Sans"
       mask="none"
       d="m 50,937.3623 0,25 30,0 0,5 -65,0 0,69.9999 100.00004,0 0,-69.9999 -20.00004,0 0,-20 -30,0 0,-10 c -5.534155,10e-4 -10.08142,10e-4 -15,0 z m 5,5 5,0 0,10 30,0 0,20 20.00004,0 0,59.9999 -90.00004,0 0,-59.9999 65,0 0,-15 -30,0 z m -30,35 0,49.9999 80.00004,0 0,-49.9999 z m 5,5 10,0 0,10 -10,0 z m 15,0 10,0 0,10 -10,0 z m 15,0 10,0 0,10 -10,0 z m 15,0 10,0 0,10 -10,0 z m 15,0 10.00001,0 c 0,8.3325 0,17.5539 0,24.9999 l -10.00001,0 c 0,-8.3324 0,-17.5539 0,-24.9999 z m -60,15 10,0 0,9.9999 -10,0 z m 15,0 10,0 0,9.9999 -10,0 z m 15,0 10,0 0,9.9999 -10,0 z m 15,0 10,0 0,9.9999 -10,0 z m -45,14.9999 c 13.333334,0 26.666666,0 40,0 l 0,10 c -13.333334,0 -26.666666,0 -40,0 z m 45,0 c 8.33254,0 17.55403,0 25.00001,0 l 0,10 c -8.333345,0 -16.666675,0 -25.00001,0 z"
       id="path3998-0"
       inkscape:connector-curvature="0"
       sodipodi:nodetypes="cccccccccccccccccccccccccccccccccccccccccccccccccccccccccccccccccccccccccccccccccccccc" />
    <path
       style="fill:none;stroke:none"
       d="m 9.03125,2.0625 0,1.46875 0,1.46875 3,0 3,0 0,1.5 0,1.5 -6.46875,0 -6.5,0 0,5.96875 0,6 8.96875,0 8.96875,0 0,-6 L 20,8 17.96875,8 15.9375,8 l 0,-2 0,-1.96875 -2.96875,0 -2.96875,0 0,-1 0,-0.96875 -0.46875,0 -0.5,0 z m 10,6.90625 0,5.03125 0,5.03125 -8,0 c -6.3200607,0 -8.029106,-0.0065 -8.0625,-0.09375 -0.023253,-0.06077 -0.012627,-2.333196 0,-5.03125 L 2.96875,9 11,9 19.03125,8.96875 z M 4,10.03125 4,11 l 0,0.96875 0.96875,0 0.96875,0 0,-0.96875 0,-0.96875 -0.96875,0 -0.96875,0 z m 3,0 L 7,11 l 0,0.96875 0.96875,0 0.96875,0 0,-0.96875 0,-0.96875 -0.96875,0 -0.96875,0 z m 3,0 0,0.96875 0,0.96875 0.96875,0 0.96875,0 0,-0.96875 0,-0.96875 -0.96875,0 -0.96875,0 z m 3,0 0,0.96875 0,0.96875 0.96875,0 1,0 0,-0.96875 0,-0.96875 -1,0 -0.96875,0 z m 3.03125,0 0,2.46875 0,2.46875 0.96875,0 0.96875,0 0,-2.46875 0,-2.46875 -0.96875,0 -0.96875,0 z M 4,13.03125 4,14 l 0,0.96875 0.96875,0 0.96875,0 0,-0.96875 0,-0.96875 -0.96875,0 -0.96875,0 z m 3,0 L 7,14 l 0,0.96875 0.96875,0 0.96875,0 0,-0.96875 0,-0.96875 -0.96875,0 -0.96875,0 z m 3,0 0,0.96875 0,0.96875 0.96875,0 0.96875,0 0,-0.96875 0,-0.96875 -0.96875,0 -0.96875,0 z m 3,0 0,0.96875 0,0.96875 0.96875,0 1,0 0,-0.96875 0,-0.96875 -1,0 -0.96875,0 z m -9,3 L 4,17 l 0,0.96875 3.96875,0 3.96875,0 0,-0.96875 0,-0.96875 -3.96875,0 -3.96875,0 z m 9,0 0,0.96875 0,0.96875 2.5,0 2.46875,0 0,-0.96875 0,-0.96875 -2.46875,0 -2.5,0 z"
       transform="translate(0,1030.3622)"
       id="path7853"
       inkscape:connector-curvature="0" />
    <path
       style="opacity:0.69999999999999996;fill:url(#linearGradient3824);fill-opacity:1;stroke:none;stroke-width:0.75000005999999986;stroke-linecap:round;stroke-linejoin:round;stroke-miterlimit:4;stroke-opacity:0.39215686000000000;stroke-dasharray:none"
       d="M 55.125 18.03125 L 55.125 25.40625 L 55.125 32.78125 L 70.125 32.78125 L 85.125 32.78125 L 85.125 40.40625 L 85.125 48.03125 L 52.625 48.03125 L 20.125 48.03125 L 20.125 77.90625 L 20.125 107.78125 L 65 107.78125 L 109.875 107.78125 L 109.875 77.90625 L 109.875 48.03125 L 99.875 48.03125 L 89.875 48.03125 L 89.875 38.03125 L 89.875 28.03125 L 74.875 28.03125 L 59.875 28.03125 L 59.875 23.03125 L 59.875 18.03125 L 57.5 18.03125 L 55.125 18.03125 z M 24.875 52.78125 L 65 52.78125 L 105.125 52.78125 L 105.125 77.90625 L 105.125 103.03125 L 65 103.03125 L 24.875 103.03125 L 24.875 77.90625 L 24.875 52.78125 z M 30.125 58.03125 L 30.125 62.90625 L 30.125 67.78125 L 35 67.78125 L 39.875 67.78125 L 39.875 62.90625 L 39.875 58.03125 L 35 58.03125 L 30.125 58.03125 z M 45.125 58.03125 L 45.125 62.90625 L 45.125 67.78125 L 50 67.78125 L 54.875 67.78125 L 54.875 62.90625 L 54.875 58.03125 L 50 58.03125 L 45.125 58.03125 z M 60.125 58.03125 L 60.125 62.90625 L 60.125 67.78125 L 65 67.78125 L 69.875 67.78125 L 69.875 62.90625 L 69.875 58.03125 L 65 58.03125 L 60.125 58.03125 z M 75.125 58.03125 L 75.125 62.90625 L 75.125 67.78125 L 80 67.78125 L 84.875 67.78125 L 84.875 62.90625 L 84.875 58.03125 L 80 58.03125 L 75.125 58.03125 z M 90.125 58.03125 L 90.125 70.40625 L 90.125 82.78125 L 95 82.78125 L 99.875 82.78125 L 99.875 70.40625 L 99.875 58.03125 L 95 58.03125 L 90.125 58.03125 z M 30.125 73.03125 L 30.125 77.90625 L 30.125 82.78125 L 35 82.78125 L 39.875 82.78125 L 39.875 77.90625 L 39.875 73.03125 L 35 73.03125 L 30.125 73.03125 z M 45.125 73.03125 L 45.125 77.90625 L 45.125 82.78125 L 50 82.78125 L 54.875 82.78125 L 54.875 77.90625 L 54.875 73.03125 L 50 73.03125 L 45.125 73.03125 z M 60.125 73.03125 L 60.125 77.90625 L 60.125 82.78125 L 65 82.78125 L 69.875 82.78125 L 69.875 77.90625 L 69.875 73.03125 L 65 73.03125 L 60.125 73.03125 z M 75.125 73.03125 L 75.125 77.90625 L 75.125 82.78125 L 80 82.78125 L 84.875 82.78125 L 84.875 77.90625 L 84.875 73.03125 L 80 73.03125 L 75.125 73.03125 z M 30.125 88.03125 L 30.125 92.90625 L 30.125 97.78125 L 50 97.78125 L 69.875 97.78125 L 69.875 92.90625 L 69.875 88.03125 L 50 88.03125 L 30.125 88.03125 z M 75.125 88.03125 L 75.125 92.90625 L 75.125 97.78125 L 87.5 97.78125 L 99.875 97.78125 L 99.875 92.90625 L 99.875 88.03125 L 87.5 88.03125 L 75.125 88.03125 z "
       transform="translate(0,924.3622)"
       id="path3022" />
  </g>
</svg>
