<?xml version="1.0" encoding="UTF-8" standalone="no"?>
<!-- Created with Inkscape (http://www.inkscape.org/) -->

<svg
   xmlns:dc="http://purl.org/dc/elements/1.1/"
   xmlns:cc="http://creativecommons.org/ns#"
   xmlns:rdf="http://www.w3.org/1999/02/22-rdf-syntax-ns#"
   xmlns:svg="http://www.w3.org/2000/svg"
   xmlns="http://www.w3.org/2000/svg"
   xmlns:sodipodi="http://sodipodi.sourceforge.net/DTD/sodipodi-0.dtd"
   xmlns:inkscape="http://www.inkscape.org/namespaces/inkscape"
   width="24"
   height="24"
   id="svg2"
   version="1.1"
   inkscape:version="0.48.4 r9939"
   sodipodi:docname="rime-disable.svg"
   inkscape:export-filename="/home/marguerite/Public/fcitx-artwork/rime/rime-im.png"
   inkscape:export-xdpi="82.5"
   inkscape:export-ydpi="82.5">
  <defs
     id="defs4" />
  <sodipodi:namedview
     id="base"
     pagecolor="#ffffff"
     bordercolor="#666666"
     borderopacity="1.0"
     inkscape:pageopacity="0.0"
     inkscape:pageshadow="2"
     inkscape:zoom="5.6568543"
     inkscape:cx="58.842207"
     inkscape:cy="-8.7992153"
     inkscape:document-units="px"
     inkscape:current-layer="layer1"
     showgrid="false"
     inkscape:window-width="1024"
     inkscape:window-height="718"
     inkscape:window-x="-2"
     inkscape:window-y="-3"
     inkscape:window-maximized="1"
     showguides="true"
     inkscape:guide-bbox="true" />
  <metadata
     id="metadata7">
    <rdf:RDF>
      <cc:Work
         rdf:about="">
        <dc:format>image/svg+xml</dc:format>
        <dc:type
           rdf:resource="http://purl.org/dc/dcmitype/StillImage" />
        <dc:title></dc:title>
      </cc:Work>
    </rdf:RDF>
  </metadata>
  <g
     inkscape:label="Layer 1"
     inkscape:groupmode="layer"
     id="layer1"
     transform="translate(0,-1028.3622)">
    <g
       id="rime-disable"
       inkscape:export-xdpi="82.5"
       inkscape:export-ydpi="82.5">
      <rect
         y="1028.3622"
         x="0"
         height="24"
         width="24"
         id="rect3759"
         style="fill:none;stroke:none" />
      <path
         inkscape:connector-curvature="0"
         id="path2989"
         d="m 4.84375,1030.1122 5.688301,8.0003 c 0.610746,1.0677 0.959718,2.8842 -0.220192,4.5507 -1.8391307,2.6587 -3.5844067,4.9396 -5.468109,7.5967 l 14.3125,0 -5.43141,-7.6701 c -0.99814,-1.4301 -1.169998,-2.9644 -0.29359,-4.3671 l 5.725,-8.1105 -14.3125,0 z m 3.0092949,3.3763 c 0.5123963,0.4471 2.1425261,0.8074 4.1102561,0.8074 2.042653,0 3.743001,-0.3336 4.183654,-0.8074 -0.981469,1.2514 -2.132084,2.3651 -2.935897,3.7433 C 12.683381,1038.1365 12,1040.1676 12,1040.1676 c 0,0 -0.645489,-1.8666 -1.13766,-2.7157 -0.826967,-1.4267 -3.0092951,-3.9634 -3.0092951,-3.9634 z M 12,1045.8193 l 1.027564,0.8441 c 2.045668,0.2358 3.614192,1.1463 3.779968,2.2753 -0.06334,0.3752 -2.202442,0.6606 -4.807532,0.6606 -2.601325,0 -4.7016401,-0.2862 -4.7708333,-0.6606 0.1678992,-1.128 1.7064927,-2.0393 3.7432693,-2.2753 L 12,1045.8193 z"
         style="fill:#176cf4;fill-opacity:1;stroke:none" />
    </g>
  </g>
</svg>
