<?xml version="1.0" encoding="UTF-8" standalone="no"?>
<!-- Created with Inkscape (http://www.inkscape.org/) -->

<svg
   xmlns:dc="http://purl.org/dc/elements/1.1/"
   xmlns:cc="http://creativecommons.org/ns#"
   xmlns:rdf="http://www.w3.org/1999/02/22-rdf-syntax-ns#"
   xmlns:svg="http://www.w3.org/2000/svg"
   xmlns="http://www.w3.org/2000/svg"
   xmlns:sodipodi="http://sodipodi.sourceforge.net/DTD/sodipodi-0.dtd"
   xmlns:inkscape="http://www.inkscape.org/namespaces/inkscape"
   width="24"
   height="24"
   id="svg2"
   version="1.1"
   inkscape:version="0.48.4 r9939"
   sodipodi:docname="rime-im.svg"
   inkscape:export-filename="/home/marguerite/Public/fcitx-artwork/rime/rime-im.png"
   inkscape:export-xdpi="82.5"
   inkscape:export-ydpi="82.5">
  <defs
     id="defs4" />
  <sodipodi:namedview
     id="base"
     pagecolor="#ffffff"
     bordercolor="#666666"
     borderopacity="1.0"
     inkscape:pageopacity="0.0"
     inkscape:pageshadow="2"
     inkscape:zoom="8"
     inkscape:cx="20.041795"
     inkscape:cy="-0.8338832"
     inkscape:document-units="px"
     inkscape:current-layer="layer1"
     showgrid="false"
     inkscape:window-width="1024"
     inkscape:window-height="718"
     inkscape:window-x="-2"
     inkscape:window-y="-3"
     inkscape:window-maximized="1"
     showguides="true"
     inkscape:guide-bbox="true" />
  <metadata
     id="metadata7">
    <rdf:RDF>
      <cc:Work
         rdf:about="">
        <dc:format>image/svg+xml</dc:format>
        <dc:type
           rdf:resource="http://purl.org/dc/dcmitype/StillImage" />
        <dc:title></dc:title>
      </cc:Work>
    </rdf:RDF>
  </metadata>
  <g
     inkscape:label="Layer 1"
     inkscape:groupmode="layer"
     id="layer1"
     transform="translate(0,-1028.3622)">
    <g
       id="rime-im"
       inkscape:export-xdpi="82.5"
       inkscape:export-ydpi="82.5">
      <rect
         y="1028.3622"
         x="0"
         height="24"
         width="24"
         id="rect3759"
         style="fill:none;stroke:none" />
      <path
         id="path2990"
         transform="translate(0,1028.3622)"
         d="M 12 1.78125 C 9.2743936 1.78125 6.80641 2.8582248 5 4.625 C 4.97905 4.6454023 4.958507 4.6669974 4.9375 4.6875 C 4.8959567 4.7288555 4.8533201 4.7704263 4.8125 4.8125 C 4.6287613 4.9941226 4.4456347 5.1784685 4.28125 5.375 C 2.9442189 6.980279 2.1291065 9.030521 2 11.25 C 1.9885582 11.446696 1.96875 11.64422 1.96875 11.84375 C 1.96875 12.043511 1.9884984 12.240624 2 12.4375 C 2.1345177 14.749087 3.0333329 16.840166 4.46875 18.46875 C 4.4977325 18.501625 4.5326898 18.530043 4.5625 18.5625 C 4.6750029 18.686843 4.7877077 18.818958 4.90625 18.9375 C 5.0071649 19.035366 5.1166776 19.12476 5.21875 19.21875 C 6.8690052 20.738097 9.0171729 21.704723 11.40625 21.84375 C 11.602869 21.855192 11.80047 21.875 12 21.875 C 12.19953 21.875 12.397131 21.855192 12.59375 21.84375 C 14.998325 21.703821 17.158239 20.72384 18.8125 19.1875 C 18.90346 19.103012 19.00304 19.024557 19.09375 18.9375 C 19.253443 18.777807 19.413842 18.607645 19.5625 18.4375 C 20.981341 16.813576 21.866384 14.733589 22 12.4375 C 22.011442 12.240881 22.03125 12.04328 22.03125 11.84375 C 22.03125 11.64422 22.011442 11.446696 22 11.25 C 21.870894 9.030521 21.055781 6.980279 19.71875 5.375 C 19.526202 5.1447978 19.309302 4.9295775 19.09375 4.71875 C 19.062257 4.6871216 19.031908 4.6562083 19 4.625 C 17.19359 2.8582248 14.725606 1.78125 12 1.78125 z M 11.09375 2.875 C 11.197955 2.8644174 11.301025 2.8819964 11.40625 2.875 L 11.40625 2.9375 C 9.7398678 3.7961559 8.3404241 5.091286 7.375 6.6875 C 6.762619 6.3253914 6.1922021 5.8990795 5.6875 5.40625 C 7.105439 4.0156231 9.0067231 3.0869491 11.09375 2.875 z M 12.59375 2.875 C 14.806436 3.0221208 16.823764 3.9461893 18.3125 5.40625 C 17.790995 5.9154873 17.198516 6.3494334 16.5625 6.71875 C 15.612627 5.1260939 14.240549 3.8373845 12.59375 2.96875 L 12.59375 2.875 z M 11.40625 4.125 L 11.40625 7.9375 C 10.310562 7.8646949 9.2724497 7.5820016 8.3125 7.15625 C 9.0831829 5.9127467 10.143265 4.8715372 11.40625 4.125 z M 12.59375 4.1875 C 13.830592 4.941147 14.904139 5.9527977 15.65625 7.1875 C 14.706279 7.6038122 13.675537 7.8656185 12.59375 7.9375 L 12.59375 4.1875 z M 5.03125 6.1875 C 5.5884049 6.7247722 6.2054355 7.197808 6.875 7.59375 C 6.3500423 8.7085942 6.0464288 9.9551618 5.96875 11.25 L 3.03125 11.25 C 3.1585253 9.3357885 3.8924393 7.5888161 5.03125 6.1875 z M 18.96875 6.1875 C 20.107561 7.5888161 20.841475 9.3357885 20.96875 11.25 L 17.9375 11.25 C 17.863902 9.9720418 17.572416 8.7602344 17.0625 7.65625 C 17.760314 7.2516238 18.391249 6.7443917 18.96875 6.1875 z M 7.8125 8.09375 C 8.9126312 8.5935698 10.134305 8.8942738 11.40625 8.96875 L 11.40625 11.25 L 7 11.25 C 7.0740116 10.121085 7.3577839 9.0678579 7.8125 8.09375 z M 16.15625 8.09375 C 16.600608 9.0575947 16.833206 10.135834 16.90625 11.25 L 12.59375 11.25 L 12.59375 8.96875 C 13.855642 8.8948625 15.063135 8.5865932 16.15625 8.09375 z M 3.03125 12.4375 L 5.96875 12.4375 C 6.0531005 13.846678 6.4231733 15.183479 7.03125 16.375 C 6.3733217 16.757849 5.7405402 17.198174 5.1875 17.71875 C 3.9498334 16.284811 3.1648283 14.446509 3.03125 12.4375 z M 7 12.4375 L 11.40625 12.4375 L 11.40625 15.03125 C 10.18747 15.106854 9.026944 15.405763 7.96875 15.875 C 7.4320539 14.825448 7.0813582 13.678452 7 12.4375 z M 12.59375 12.4375 L 16.90625 12.4375 C 16.824262 13.658406 16.523533 14.807906 16 15.84375 C 14.947112 15.390111 13.802202 15.098498 12.59375 15.03125 L 12.59375 12.4375 z M 17.9375 12.4375 L 20.96875 12.4375 C 20.836207 14.430934 20.064964 16.258618 18.84375 17.6875 C 18.266187 17.148593 17.62795 16.669644 16.9375 16.28125 C 17.521275 15.110844 17.855079 13.814437 17.9375 12.4375 z M 11.40625 16.09375 L 11.40625 19.5625 C 10.239902 18.873073 9.2530729 17.931844 8.5 16.8125 C 9.4043347 16.422119 10.379908 16.166209 11.40625 16.09375 z M 12.59375 16.09375 C 13.605014 16.157914 14.577478 16.373818 15.46875 16.75 C 14.732256 17.862116 13.737452 18.804776 12.59375 19.5 L 12.59375 16.09375 z M 16.375 17.21875 C 16.998992 17.569315 17.571103 17.988155 18.09375 18.46875 C 16.629749 19.815962 14.704597 20.67215 12.59375 20.8125 L 12.59375 20.6875 C 14.139449 19.87637 15.435075 18.679517 16.375 17.21875 z M 7.5625 17.28125 C 8.5180135 18.750422 9.8376367 19.946094 11.40625 20.75 L 11.40625 20.8125 C 9.3037893 20.672708 7.3992243 19.806814 5.9375 18.46875 C 6.4288906 18.01446 6.9781982 17.619062 7.5625 17.28125 z "
         style="fill:#176cf4;fill-opacity:1;stroke:none" />
    </g>
  </g>
</svg>
