<?xml version="1.0" encoding="UTF-8" standalone="no"?>
<!-- Created with Inkscape (http://www.inkscape.org/) -->

<svg
   xmlns:dc="http://purl.org/dc/elements/1.1/"
   xmlns:cc="http://creativecommons.org/ns#"
   xmlns:rdf="http://www.w3.org/1999/02/22-rdf-syntax-ns#"
   xmlns:svg="http://www.w3.org/2000/svg"
   xmlns="http://www.w3.org/2000/svg"
   xmlns:sodipodi="http://sodipodi.sourceforge.net/DTD/sodipodi-0.dtd"
   xmlns:inkscape="http://www.inkscape.org/namespaces/inkscape"
   width="16"
   height="16"
   id="svg2"
   version="1.1"
   inkscape:version="0.48.4 r9939"
   sodipodi:docname="rime-redeploy.svg"
   inkscape:export-filename="/home/marguerite/Public/fcitx-artwork/rime/rime-redeploy.png"
   inkscape:export-xdpi="123.75"
   inkscape:export-ydpi="123.75">
  <defs
     id="defs4" />
  <sodipodi:namedview
     id="base"
     pagecolor="#ffffff"
     bordercolor="#666666"
     borderopacity="1.0"
     inkscape:pageopacity="0.0"
     inkscape:pageshadow="2"
     inkscape:zoom="22.4"
     inkscape:cx="7.6683526"
     inkscape:cy="8.5652361"
     inkscape:document-units="px"
     inkscape:current-layer="layer1"
     showgrid="false"
     inkscape:window-width="1024"
     inkscape:window-height="718"
     inkscape:window-x="-2"
     inkscape:window-y="-3"
     inkscape:window-maximized="1" />
  <metadata
     id="metadata7">
    <rdf:RDF>
      <cc:Work
         rdf:about="">
        <dc:format>image/svg+xml</dc:format>
        <dc:type
           rdf:resource="http://purl.org/dc/dcmitype/StillImage" />
        <dc:title></dc:title>
      </cc:Work>
    </rdf:RDF>
  </metadata>
  <g
     inkscape:label="Layer 1"
     inkscape:groupmode="layer"
     id="layer1"
     transform="translate(0,-1036.3622)">
    <path
       style="fill:#176cf4;fill-opacity:1;stroke:none;stroke-width:25;stroke-miterlimit:4;stroke-opacity:1;stroke-dasharray:none"
       d="M 8 2.03125 C 4.6990374 2.03125 2.03125 4.6990374 2.03125 8 C 2.03125 11.300963 4.6990374 13.96875 8 13.96875 C 11.300963 13.96875 13.96875 11.300963 13.96875 8 C 13.96875 4.6990374 11.300963 2.03125 8 2.03125 z M 8.96875 2.875 L 10.5625 4.84375 L 8.3125 6 L 8.53125 4.90625 C 8.358304 4.87725 8.1813697 4.84375 8 4.84375 C 6.2622335 4.84375 4.84375 6.2622 4.84375 8 C 4.84375 8.7501 5.1242937 9.42815 5.5625 9.96875 L 4.84375 10.875 C 4.1558531 10.1196 3.75 9.1023 3.75 8 C 3.75 5.6512 5.6512381 3.75 8 3.75 C 8.2609716 3.75 8.50204 3.7675 8.75 3.8125 L 8.96875 2.875 z M 11.0625 5.03125 C 11.806673 5.79715 12.25 6.8478 12.25 8 C 12.25 10.3488 10.348762 12.25 8 12.25 C 7.6961909 12.25 7.4107482 12.21725 7.125 12.15625 L 6.9375 13.09375 L 5.28125 11.125 L 7.5625 9.96875 L 7.34375 11.0625 C 7.5579852 11.1085 7.7719692 11.15625 8 11.15625 C 9.7377665 11.15625 11.15625 9.7378 11.15625 8 C 11.15625 7.1996 10.835964 6.46165 10.34375 5.90625 L 11.0625 5.03125 z "
       transform="translate(0,1036.3622)"
       id="path2985" />
  </g>
</svg>
