<?xml version="1.0" encoding="UTF-8" standalone="no"?>
<!-- Created with Inkscape (http://www.inkscape.org/) -->

<svg
   xmlns:dc="http://purl.org/dc/elements/1.1/"
   xmlns:cc="http://creativecommons.org/ns#"
   xmlns:rdf="http://www.w3.org/1999/02/22-rdf-syntax-ns#"
   xmlns:svg="http://www.w3.org/2000/svg"
   xmlns="http://www.w3.org/2000/svg"
   xmlns:sodipodi="http://sodipodi.sourceforge.net/DTD/sodipodi-0.dtd"
   xmlns:inkscape="http://www.inkscape.org/namespaces/inkscape"
   width="16"
   height="16"
   id="svg2"
   version="1.1"
   inkscape:version="0.48.4 r9939"
   sodipodi:docname="rime-sync.svg"
   inkscape:export-filename="/home/marguerite/Public/fcitx-artwork/rime/rime-sync.png"
   inkscape:export-xdpi="123.75"
   inkscape:export-ydpi="123.75">
  <defs
     id="defs4" />
  <sodipodi:namedview
     id="base"
     pagecolor="#ffffff"
     bordercolor="#666666"
     borderopacity="1.0"
     inkscape:pageopacity="0.0"
     inkscape:pageshadow="2"
     inkscape:zoom="22.4"
     inkscape:cx="11.922383"
     inkscape:cy="9.5423362"
     inkscape:document-units="px"
     inkscape:current-layer="layer1"
     showgrid="false"
     inkscape:window-width="1024"
     inkscape:window-height="718"
     inkscape:window-x="-2"
     inkscape:window-y="-3"
     inkscape:window-maximized="1"
     fit-margin-top="2"
     fit-margin-left="2"
     fit-margin-right="2"
     fit-margin-bottom="2" />
  <metadata
     id="metadata7">
    <rdf:RDF>
      <cc:Work
         rdf:about="">
        <dc:format>image/svg+xml</dc:format>
        <dc:type
           rdf:resource="http://purl.org/dc/dcmitype/StillImage" />
        <dc:title></dc:title>
      </cc:Work>
    </rdf:RDF>
  </metadata>
  <g
     inkscape:label="Layer 1"
     inkscape:groupmode="layer"
     id="layer1"
     transform="translate(-136.57143,-697.64807)">
    <path
       style="fill:#176cf4;fill-opacity:1;stroke:none;stroke-width:0.77770180000000000;stroke-miterlimit:4;stroke-opacity:1;stroke-dasharray:none"
       d="M 6.46875 2.8125 C 4.37448 2.8125 2.65625 4.54283 2.65625 6.65625 C 2.65625 6.83474 2.6641 7.01551 2.6875 7.1875 C 1.34967 7.60006 0.375 8.85865 0.375 10.34375 C 0.375 12.16455 1.85196 13.625 3.65625 13.625 L 12.46875 13.625 C 14.22444 13.569 15.625 12.09784 15.625 10.3125 C 15.625 8.7019 14.48177 7.38186 12.96875 7.09375 C 13.02765 6.8984 13.0625 6.68351 13.0625 6.46875 C 13.0625 5.29824 12.09741 4.34375 10.9375 4.34375 C 10.48837 4.34375 10.09144 4.50768 9.75 4.75 C 9.09477 3.60457 7.87354 2.8125 6.46875 2.8125 z M 4.9375 6.5 L 7 6.5 L 7 9.34375 L 7.875 9.34375 L 5.96875 11.5625 L 4.03125 9.34375 L 4.9375 9.34375 L 4.9375 6.5 z M 10.03125 6.5 L 11.96875 8.71875 L 11.0625 8.71875 L 11.09375 11.5625 L 9.03125 11.5625 L 9 8.75 L 8.125 8.75 L 10.03125 6.5 z "
       transform="translate(136.57143,697.64807)"
       id="path2987" />
  </g>
</svg>
