<?xml version="1.0" encoding="UTF-8" standalone="no"?>
<!-- Created with Inkscape (http://www.inkscape.org/) -->

<svg
   xmlns:dc="http://purl.org/dc/elements/1.1/"
   xmlns:cc="http://creativecommons.org/ns#"
   xmlns:rdf="http://www.w3.org/1999/02/22-rdf-syntax-ns#"
   xmlns:svg="http://www.w3.org/2000/svg"
   xmlns="http://www.w3.org/2000/svg"
   xmlns:sodipodi="http://sodipodi.sourceforge.net/DTD/sodipodi-0.dtd"
   xmlns:inkscape="http://www.inkscape.org/namespaces/inkscape"
   width="24"
   height="24"
   id="svg2"
   version="1.1"
   inkscape:version="0.48.4 r9939"
   sodipodi:docname="punc_active.svg"
   inkscape:export-filename="/home/marguerite/Public/fcitx-artwork/skin/new_default/chttrans_inactive.png"
   inkscape:export-xdpi="90"
   inkscape:export-ydpi="90">
  <defs
     id="defs4" />
  <sodipodi:namedview
     id="base"
     pagecolor="#ffffff"
     bordercolor="#666666"
     borderopacity="1.0"
     inkscape:pageopacity="0.0"
     inkscape:pageshadow="2"
     inkscape:zoom="11.313709"
     inkscape:cx="25.777494"
     inkscape:cy="7.0480353"
     inkscape:document-units="px"
     inkscape:current-layer="layer1"
     showgrid="false"
     inkscape:window-width="1024"
     inkscape:window-height="718"
     inkscape:window-x="-2"
     inkscape:window-y="-3"
     inkscape:window-maximized="1" />
  <metadata
     id="metadata7">
    <rdf:RDF>
      <cc:Work
         rdf:about="">
        <dc:format>image/svg+xml</dc:format>
        <dc:type
           rdf:resource="http://purl.org/dc/dcmitype/StillImage" />
        <dc:title />
      </cc:Work>
    </rdf:RDF>
  </metadata>
  <g
     inkscape:label="Layer 1"
     inkscape:groupmode="layer"
     id="layer1"
     transform="translate(0,-1028.3622)">
    <g
       id="punc_active">
      <g
         id="g3850">
        <rect
           style="fill:none;stroke:none"
           id="rect3759"
           width="24"
           height="24"
           x="0"
           y="1028.3622" />
        <g
           id="g3846"
           transform="translate(-0.3024503,-0.11766738)">
          <path
             sodipodi:nodetypes="sscccs"
             inkscape:connector-curvature="0"
             id="path3813"
             d="m 7.6425345,1030.285 c -2.4681292,0 -4.4936152,2.0961 -4.4936152,4.5981 0,1.8764 1.113099,3.3879 2.7170697,4.0755 0.3232727,1.1022 -0.5277034,2.5649 -3.4485884,3.135 5.2460812,-0.4648 9.5165534,-2.4759 9.7187504,-7.2105 0,-2.502 -2.025487,-4.5981 -4.4936165,-4.5981 z"
             style="fill:#659ad1;fill-opacity:1;stroke:none" />
          <path
             id="path3841"
             transform="translate(0,1028.3622)"
             d="m 17.25,12.4375 c -2.726906,0 -4.9375,2.210594 -4.9375,4.9375 0,2.726906 2.210594,4.9375 4.9375,4.9375 2.726906,0 4.9375,-2.210594 4.9375,-4.9375 0,-2.726906 -2.210594,-4.9375 -4.9375,-4.9375 z m 0,3.15625 c 0.983757,0 1.78125,0.797493 1.78125,1.78125 0,0.983757 -0.797493,1.78125 -1.78125,1.78125 -0.983757,0 -1.78125,-0.797493 -1.78125,-1.78125 0,-0.983757 0.797493,-1.78125 1.78125,-1.78125 z"
             style="fill:#659ad1;fill-opacity:1;stroke:none"
             inkscape:connector-curvature="0" />
        </g>
      </g>
    </g>
  </g>
</svg>
