<?xml version="1.0" encoding="UTF-8" standalone="no"?>
<!-- Created with Inkscape (http://www.inkscape.org/) -->

<svg
   xmlns:dc="http://purl.org/dc/elements/1.1/"
   xmlns:cc="http://creativecommons.org/ns#"
   xmlns:rdf="http://www.w3.org/1999/02/22-rdf-syntax-ns#"
   xmlns:svg="http://www.w3.org/2000/svg"
   xmlns="http://www.w3.org/2000/svg"
   xmlns:sodipodi="http://sodipodi.sourceforge.net/DTD/sodipodi-0.dtd"
   xmlns:inkscape="http://www.inkscape.org/namespaces/inkscape"
   width="22.55357"
   height="22.55357"
   id="svg2"
   version="1.1"
   inkscape:version="0.48.5 r10040"
   sodipodi:docname="punc_active.svg"
   inkscape:export-filename="/home/marguerite/Dartmouth/punc_active.png"
   inkscape:export-xdpi="96.879997"
   inkscape:export-ydpi="96.879997">
  <defs
     id="defs4" />
  <sodipodi:namedview
     id="base"
     pagecolor="#ffffff"
     bordercolor="#666666"
     borderopacity="1.0"
     inkscape:pageopacity="0.0"
     inkscape:pageshadow="2"
     inkscape:zoom="8"
     inkscape:cx="12.055513"
     inkscape:cy="14.541102"
     inkscape:document-units="px"
     inkscape:current-layer="layer1"
     showgrid="false"
     showguides="true"
     inkscape:guide-bbox="true"
     fit-margin-top="4"
     fit-margin-left="4"
     fit-margin-bottom="4"
     fit-margin-right="4"
     inkscape:window-width="1024"
     inkscape:window-height="721"
     inkscape:window-x="-2"
     inkscape:window-y="-3"
     inkscape:window-maximized="1">
    <sodipodi:guide
       orientation="1,0"
       position="3.9999985,11.544637"
       id="guide2987" />
    <sodipodi:guide
       orientation="1,0"
       position="18.553569,12.080347"
       id="guide2989" />
    <sodipodi:guide
       orientation="0,1"
       position="14.446429,18.553567"
       id="guide2991" />
    <sodipodi:guide
       orientation="0,1"
       position="12.839289,3.9999869"
       id="guide2993" />
  </sodipodi:namedview>
  <metadata
     id="metadata7">
    <rdf:RDF>
      <cc:Work
         rdf:about="">
        <dc:format>image/svg+xml</dc:format>
        <dc:type
           rdf:resource="http://purl.org/dc/dcmitype/StillImage" />
        <dc:title></dc:title>
      </cc:Work>
    </rdf:RDF>
  </metadata>
  <g
     inkscape:label="Layer 1"
     inkscape:groupmode="layer"
     id="layer1"
     transform="translate(-193.85714,-243.31753)">
    <text
       xml:space="preserve"
       style="font-size:16px;font-style:normal;font-variant:normal;font-weight:normal;font-stretch:normal;line-height:125%;letter-spacing:0px;word-spacing:0px;fill:#000000;fill-opacity:1;stroke:none;font-family:Oxygen Mono;-inkscape-font-specification:Oxygen Mono"
       x="7"
       y="7.5535698"
       id="text4622"
       sodipodi:linespacing="125%"
       transform="translate(193.85714,243.31753)"><tspan
         sodipodi:role="line"
         id="tspan4624"
         x="7"
         y="7.5535698" /></text>
    <text
       xml:space="preserve"
       style="font-size:16px;font-style:normal;font-variant:normal;font-weight:normal;font-stretch:normal;line-height:125%;letter-spacing:0px;word-spacing:0px;fill:#000000;fill-opacity:1;stroke:none;font-family:Oxygen Mono;-inkscape-font-specification:Oxygen Mono"
       x="7"
       y="10.05357"
       id="text4626"
       sodipodi:linespacing="125%"
       transform="translate(193.85714,243.31753)"><tspan
         sodipodi:role="line"
         id="tspan4628"
         x="7"
         y="10.05357" /></text>
    <path
       style="font-size:8px;font-style:normal;font-variant:normal;font-weight:normal;font-stretch:normal;line-height:125%;letter-spacing:0px;word-spacing:0px;fill:#86c30f;fill-opacity:1;stroke:none;font-family:'文泉驿微米黑';-inkscape-font-specification:'文泉驿微米黑'"
       d="M 4.25 4.0625 L 4.25 8.1875 L 6.125 8.1875 L 4 12.6875 L 5.875 12.6875 L 9.125 8.1875 L 9.125 4.0625 L 4.25 4.0625 z M 14.125 10.0625 C 12.874996 10.062505 11.83333 10.479171 11 11.3125 C 10.166665 12.145836 9.7499993 13.145835 9.75 14.3125 C 9.7499993 15.479166 10.166665 16.479165 11 17.3125 C 11.83333 18.14583 12.874996 18.562496 14.125 18.5625 C 15.29166 18.562496 16.291659 18.14583 17.125 17.3125 C 17.958324 16.479165 18.374991 15.479166 18.375 14.3125 C 18.374991 13.145835 17.958324 12.145836 17.125 11.3125 C 16.291659 10.479171 15.29166 10.062505 14.125 10.0625 z M 14.125 12.0625 C 14.708328 12.062503 15.22916 12.270836 15.6875 12.6875 C 16.145826 13.104169 16.374993 13.645835 16.375 14.3125 C 16.374993 14.979167 16.145826 15.541666 15.6875 16 C 15.22916 16.458332 14.708328 16.687498 14.125 16.6875 C 13.458329 16.687498 12.895829 16.458332 12.4375 16 C 11.979164 15.541666 11.749997 14.979167 11.75 14.3125 C 11.749997 13.645835 11.979164 13.104169 12.4375 12.6875 C 12.895829 12.270836 13.458329 12.062503 14.125 12.0625 z "
       transform="translate(193.85714,243.31753)"
       id="text4630" />
  </g>
</svg>
