<?xml version="1.0" encoding="UTF-8" standalone="no"?>
<!-- Created with Inkscape (http://www.inkscape.org/) -->

<svg
   xmlns:dc="http://purl.org/dc/elements/1.1/"
   xmlns:cc="http://creativecommons.org/ns#"
   xmlns:rdf="http://www.w3.org/1999/02/22-rdf-syntax-ns#"
   xmlns:svg="http://www.w3.org/2000/svg"
   xmlns="http://www.w3.org/2000/svg"
   xmlns:xlink="http://www.w3.org/1999/xlink"
   xmlns:sodipodi="http://sodipodi.sourceforge.net/DTD/sodipodi-0.dtd"
   xmlns:inkscape="http://www.inkscape.org/namespaces/inkscape"
   width="22.55357"
   height="22.55357"
   id="svg2"
   version="1.1"
   inkscape:version="0.48.5 r10040"
   sodipodi:docname="punc_inactive.svg"
   inkscape:export-filename="/home/marguerite/openSUSE-Harlequin/punc_inactive.png"
   inkscape:export-xdpi="96.879997"
   inkscape:export-ydpi="96.879997">
  <defs
     id="defs4">
    <linearGradient
       inkscape:collect="always"
       id="linearGradient3773">
      <stop
         style="stop-color:#66ff00;stop-opacity:1"
         offset="0"
         id="stop3775" />
      <stop
         style="stop-color:#44aa00;stop-opacity:1"
         offset="1"
         id="stop3777" />
    </linearGradient>
    <radialGradient
       inkscape:collect="always"
       xlink:href="#linearGradient3773"
       id="radialGradient3779"
       cx="12.839289"
       cy="18.90472"
       fx="12.839289"
       fy="18.90472"
       r="7.390625"
       gradientTransform="matrix(0.79101318,-0.6117991,1.1960138,1.5463617,-19.927066,-2.8248882)"
       gradientUnits="userSpaceOnUse" />
  </defs>
  <sodipodi:namedview
     id="base"
     pagecolor="#ffffff"
     bordercolor="#666666"
     borderopacity="1.0"
     inkscape:pageopacity="0.0"
     inkscape:pageshadow="2"
     inkscape:zoom="8"
     inkscape:cx="12.055513"
     inkscape:cy="14.478602"
     inkscape:document-units="px"
     inkscape:current-layer="layer1"
     showgrid="false"
     showguides="true"
     inkscape:guide-bbox="true"
     fit-margin-top="4"
     fit-margin-left="4"
     fit-margin-bottom="4"
     fit-margin-right="4"
     inkscape:window-width="1024"
     inkscape:window-height="721"
     inkscape:window-x="-2"
     inkscape:window-y="-3"
     inkscape:window-maximized="1">
    <sodipodi:guide
       orientation="1,0"
       position="3.9999985,11.544637"
       id="guide2987" />
    <sodipodi:guide
       orientation="1,0"
       position="18.553569,12.080347"
       id="guide2989" />
    <sodipodi:guide
       orientation="0,1"
       position="14.446429,18.553567"
       id="guide2991" />
    <sodipodi:guide
       orientation="0,1"
       position="12.839289,3.9999869"
       id="guide2993" />
  </sodipodi:namedview>
  <metadata
     id="metadata7">
    <rdf:RDF>
      <cc:Work
         rdf:about="">
        <dc:format>image/svg+xml</dc:format>
        <dc:type
           rdf:resource="http://purl.org/dc/dcmitype/StillImage" />
        <dc:title></dc:title>
      </cc:Work>
    </rdf:RDF>
  </metadata>
  <g
     inkscape:label="Layer 1"
     inkscape:groupmode="layer"
     id="layer1"
     transform="translate(-193.85714,-243.31753)">
    <text
       xml:space="preserve"
       style="font-size:16px;font-style:normal;font-variant:normal;font-weight:normal;font-stretch:normal;line-height:125%;letter-spacing:0px;word-spacing:0px;fill:#000000;fill-opacity:1;stroke:none;font-family:Oxygen Mono;-inkscape-font-specification:Oxygen Mono"
       x="7"
       y="7.5535698"
       id="text4622"
       sodipodi:linespacing="125%"
       transform="translate(193.85714,243.31753)"><tspan
         sodipodi:role="line"
         id="tspan4624"
         x="7"
         y="7.5535698" /></text>
    <text
       xml:space="preserve"
       style="font-size:16px;font-style:normal;font-variant:normal;font-weight:normal;font-stretch:normal;line-height:125%;letter-spacing:0px;word-spacing:0px;fill:#000000;fill-opacity:1;stroke:none;font-family:Oxygen Mono;-inkscape-font-specification:Oxygen Mono"
       x="7"
       y="10.05357"
       id="text4626"
       sodipodi:linespacing="125%"
       transform="translate(193.85714,243.31753)"><tspan
         sodipodi:role="line"
         id="tspan4628"
         x="7"
         y="10.05357" /></text>
    <path
       style="font-size:8px;font-style:normal;font-variant:normal;font-weight:normal;font-stretch:normal;line-height:125%;letter-spacing:0px;word-spacing:0px;fill:#1c2122;fill-opacity:1;stroke:none;font-family:Oxygen Mono;-inkscape-font-specification:Oxygen Mono"
       d="m 208.76339,255.97378 c -0.28125,0 -0.54167,0.0417 -0.78125,0.125 -0.23959,0.0729 -0.44792,0.19792 -0.625,0.375 -0.17709,0.16667 -0.30209,0.375 -0.40625,0.65625 -0.10417,0.27084 -0.15625,0.60417 -0.15625,1 0,0.38542 0.0521,0.71875 0.15625,1 0.10416,0.27083 0.22916,0.51042 0.40625,0.6875 0.17708,0.17708 0.38541,0.29167 0.625,0.375 0.23958,0.0833 0.5,0.125 0.78125,0.125 0.27083,0 0.54166,-0.0417 0.78125,-0.125 0.24999,-0.0833 0.44791,-0.19792 0.625,-0.375 0.17708,-0.17708 0.33333,-0.41667 0.4375,-0.6875 0.10416,-0.28125 0.15624,-0.61458 0.15625,-1 -10e-6,-0.39583 -0.0521,-0.72916 -0.15625,-1 -0.10417,-0.28125 -0.26042,-0.48958 -0.4375,-0.65625 -0.17709,-0.17708 -0.37501,-0.30208 -0.625,-0.375 -0.23959,-0.0833 -0.51042,-0.125 -0.78125,-0.125 z"
       id="path2998"
       inkscape:connector-curvature="0" />
    <path
       style="font-size:8px;font-style:normal;font-variant:normal;font-weight:normal;font-stretch:normal;line-height:125%;letter-spacing:0px;word-spacing:0px;fill:#1c2122;fill-opacity:1;stroke:none;font-family:Oxygen Mono;-inkscape-font-specification:Oxygen Mono"
       d="m 199.54464,248.28628 c -0.0833,0.55209 -0.16667,1.15625 -0.28125,1.8125 -0.11459,0.64583 -0.26042,1.29167 -0.40625,1.96875 -0.13542,0.6875 -0.28125,1.375 -0.4375,2.0625 -0.14583,0.6875 -0.28125,1.36458 -0.4375,2 l 2.15625,0 c 0.26041,-0.58334 0.52083,-1.19792 0.78125,-1.84375 0.27083,-0.63542 0.51041,-1.29167 0.75,-1.9375 0.25,-0.64583 0.48958,-1.27083 0.6875,-1.90625 0.20833,-0.63541 0.38541,-1.25 0.53125,-1.8125 l -0.25,-0.34375 -3.09375,0 z"
       id="text4630"
       inkscape:connector-curvature="0" />
  </g>
</svg>
