<?xml version="1.0" encoding="UTF-8" standalone="no"?>
<!-- Created with Inkscape (http://www.inkscape.org/) -->

<svg
   xmlns:dc="http://purl.org/dc/elements/1.1/"
   xmlns:cc="http://creativecommons.org/ns#"
   xmlns:rdf="http://www.w3.org/1999/02/22-rdf-syntax-ns#"
   xmlns:svg="http://www.w3.org/2000/svg"
   xmlns="http://www.w3.org/2000/svg"
   xmlns:sodipodi="http://sodipodi.sourceforge.net/DTD/sodipodi-0.dtd"
   xmlns:inkscape="http://www.inkscape.org/namespaces/inkscape"
   width="24"
   height="24"
   id="svg2"
   version="1.1"
   inkscape:version="0.48.5 r10040"
   sodipodi:docname="rime-im.svg"
   inkscape:export-filename="/home/marguerite/openSUSE-Harlequin/rime-im.png"
   inkscape:export-xdpi="90"
   inkscape:export-ydpi="90">
  <defs
     id="defs4" />
  <sodipodi:namedview
     id="base"
     pagecolor="#ffffff"
     bordercolor="#666666"
     borderopacity="1.0"
     inkscape:pageopacity="0.0"
     inkscape:pageshadow="2"
     inkscape:zoom="8"
     inkscape:cx="20.041795"
     inkscape:cy="-0.8338832"
     inkscape:document-units="px"
     inkscape:current-layer="layer1"
     showgrid="false"
     inkscape:window-width="1024"
     inkscape:window-height="721"
     inkscape:window-x="-2"
     inkscape:window-y="-3"
     inkscape:window-maximized="1"
     showguides="true"
     inkscape:guide-bbox="true" />
  <metadata
     id="metadata7">
    <rdf:RDF>
      <cc:Work
         rdf:about="">
        <dc:format>image/svg+xml</dc:format>
        <dc:type
           rdf:resource="http://purl.org/dc/dcmitype/StillImage" />
        <dc:title></dc:title>
      </cc:Work>
    </rdf:RDF>
  </metadata>
  <g
     inkscape:label="Layer 1"
     inkscape:groupmode="layer"
     id="layer1"
     transform="translate(0,-1028.3622)">
    <rect
       style="fill:none;stroke:none"
       id="rect3759"
       width="20"
       height="20"
       x="2"
       y="1030.3622" />
    <path
       inkscape:connector-curvature="0"
       style="fill:#28ae95;fill-opacity:1;stroke:none"
       d="m 12,1031.8466 c -2.2713387,0 -4.3279917,0.8975 -5.8333334,2.3698 -0.017458,0.017 -0.034577,0.035 -0.052083,0.052 -0.034619,0.034 -0.07015,0.069 -0.1041666,0.1042 -0.1531156,0.1514 -0.3057211,0.305 -0.4427084,0.4688 -1.1141926,1.3377 -1.7934529,3.0462 -1.9010416,4.8958 -0.00954,0.1639 -0.026042,0.3285 -0.026042,0.4948 0,0.1665 0.016457,0.3307 0.026042,0.4948 0.112098,1.9263 0.8611107,3.6689 2.0572916,5.026 0.024152,0.027 0.053283,0.051 0.078125,0.078 0.093752,0.1037 0.1876731,0.2138 0.2864584,0.3125 0.084096,0.082 0.1753563,0.1561 0.2604166,0.2344 1.3752127,1.2661 3.1653524,2.0717 5.1562497,2.1875 0.163849,0.01 0.328517,0.026 0.494792,0.026 0.166275,0 0.330942,-0.016 0.494792,-0.026 2.003812,-0.1166 3.80374,-0.9332 5.182291,-2.2135 0.0758,-0.07 0.158784,-0.1358 0.234375,-0.2084 0.133078,-0.133 0.266744,-0.2748 0.390625,-0.4166 1.182368,-1.3533 1.919904,-3.0866 2.03125,-5 0.0095,-0.1639 0.02604,-0.3285 0.02604,-0.4948 0,-0.1663 -0.01651,-0.3309 -0.02604,-0.4948 -0.107588,-1.8496 -0.786849,-3.5581 -1.901041,-4.8958 -0.160457,-0.1919 -0.341207,-0.3712 -0.520834,-0.5469 -0.02624,-0.026 -0.05154,-0.052 -0.07813,-0.078 -1.505341,-1.4723 -3.561995,-2.3698 -5.833333,-2.3698 z m -0.755208,0.9114 c 0.08684,-0.01 0.172729,0.01 0.260416,0 l 0,0.052 c -1.388652,0.7156 -2.5548546,1.7948 -3.3593747,3.125 -0.5103175,-0.3017 -0.9856649,-0.657 -1.40625,-1.0677 1.1816158,-1.1588 2.7660193,-1.9327 4.5052087,-2.1094 z m 1.25,0 c 1.843905,0.1226 3.525011,0.8927 4.765625,2.1094 -0.434588,0.4244 -0.92832,0.786 -1.458334,1.0938 -0.791561,-1.3273 -1.934959,-2.4012 -3.307291,-3.125 l 0,-0.078 z m -0.989584,1.0417 0,3.1771 c -0.913073,-0.061 -1.7781666,-0.2963 -2.5781247,-0.6511 0.6422358,-1.0362 1.5256377,-1.9039 2.5781247,-2.526 z m 0.989584,0.052 c 1.030701,0.628 1.925324,1.4711 2.552083,2.5 -0.791643,0.3469 -1.650594,0.5651 -2.552083,0.625 l 0,-3.125 z m -6.3020837,1.6666 c 0.4642958,0.4478 0.9784879,0.842 1.5364583,1.1719 -0.4374647,0.9291 -0.690476,1.9679 -0.7552083,3.0469 l -2.4479166,0 c 0.1060627,-1.5952 0.7176577,-3.051 1.6666666,-4.2188 z m 11.6145837,0 c 0.949009,1.1678 1.560604,2.6236 1.666666,4.2188 l -2.526041,0 c -0.06133,-1.065 -0.304237,-2.0748 -0.729167,-2.9948 0.581512,-0.3372 1.107291,-0.7599 1.588542,-1.224 z m -9.2968754,1.5886 c 0.916776,0.4165 1.9348374,0.6671 2.9947914,0.7292 l 0,1.901 -3.6718747,0 c 0.061676,-0.9408 0.2981533,-1.8185 0.6770833,-2.6302 z m 6.9531254,0 c 0.370298,0.8032 0.56413,1.7017 0.625,2.6302 l -3.59375,0 0,-1.901 c 1.051576,-0.062 2.05782,-0.3185 2.96875,-0.7292 z m -10.9375003,3.6198 2.4479166,0 c 0.070293,1.1743 0.3786861,2.2883 0.8854167,3.2812 -0.5482736,0.3191 -1.0755915,0.686 -1.5364584,1.1198 -1.0313888,-1.1949 -1.6855597,-2.7268 -1.7968749,-4.401 z m 3.3072916,0 3.6718747,0 0,2.1614 c -1.01565,0.063 -1.9827547,0.3121 -2.864583,0.7032 -0.4472468,-0.8747 -0.7394932,-1.8305 -0.8072917,-2.8646 z m 4.6614587,0 3.59375,0 c -0.06832,1.0174 -0.318931,1.9753 -0.755209,2.8385 -0.877406,-0.378 -1.831498,-0.621 -2.838541,-0.6771 l 0,-2.1614 z m 4.453125,0 2.526041,0 c -0.110452,1.6612 -0.753155,3.1842 -1.770833,4.375 -0.481303,-0.4491 -1.013167,-0.8482 -1.588542,-1.1719 0.486479,-0.9753 0.764649,-2.0557 0.833334,-3.2031 z m -5.442709,3.0469 0,2.8906 c -0.971956,-0.5745 -1.7943139,-1.3589 -2.4218747,-2.2917 0.7536123,-0.3253 1.5665897,-0.5386 2.4218747,-0.5989 z m 0.989584,0 c 0.84272,0.053 1.653106,0.2333 2.395833,0.5468 -0.613745,0.9268 -1.442748,1.7123 -2.395833,2.2917 l 0,-2.8385 z m 3.151041,0.9375 c 0.519994,0.2921 0.996753,0.6411 1.432292,1.0416 -1.220001,1.1227 -2.824294,1.8362 -4.583333,1.9531 l 0,-0.1041 c 1.288082,-0.676 2.36777,-1.6733 3.151041,-2.8906 z m -7.3437497,0.052 c 0.7962613,1.2244 1.8959477,2.2207 3.2031247,2.8907 l 0,0.052 c -1.7520503,-0.1164 -3.3391878,-0.838 -4.5572914,-1.9531 0.4094922,-0.3786 0.8672485,-0.708 1.3541667,-0.9896 z"
       id="path2990" />
  </g>
</svg>
