<?xml version="1.0" encoding="UTF-8" standalone="no"?>
<!-- Created with Inkscape (http://www.inkscape.org/) -->

<svg
   xmlns:dc="http://purl.org/dc/elements/1.1/"
   xmlns:cc="http://creativecommons.org/ns#"
   xmlns:rdf="http://www.w3.org/1999/02/22-rdf-syntax-ns#"
   xmlns:svg="http://www.w3.org/2000/svg"
   xmlns="http://www.w3.org/2000/svg"
   xmlns:sodipodi="http://sodipodi.sourceforge.net/DTD/sodipodi-0.dtd"
   xmlns:inkscape="http://www.inkscape.org/namespaces/inkscape"
   width="24"
   height="24"
   id="svg2"
   version="1.1"
   inkscape:version="0.48.5 r10040"
   sodipodi:docname="rime-deploy.svg"
   inkscape:export-filename="/home/marguerite/openSUSE-Harlequin/rime-deploy.png"
   inkscape:export-xdpi="90"
   inkscape:export-ydpi="90">
  <defs
     id="defs4" />
  <sodipodi:namedview
     id="base"
     pagecolor="#ffffff"
     bordercolor="#666666"
     borderopacity="1.0"
     inkscape:pageopacity="0.0"
     inkscape:pageshadow="2"
     inkscape:zoom="8"
     inkscape:cx="26.36762"
     inkscape:cy="6.0098104"
     inkscape:document-units="px"
     inkscape:current-layer="layer1"
     showgrid="false"
     inkscape:window-width="1024"
     inkscape:window-height="721"
     inkscape:window-x="-2"
     inkscape:window-y="-3"
     inkscape:window-maximized="1" />
  <metadata
     id="metadata7">
    <rdf:RDF>
      <cc:Work
         rdf:about="">
        <dc:format>image/svg+xml</dc:format>
        <dc:type
           rdf:resource="http://purl.org/dc/dcmitype/StillImage" />
        <dc:title></dc:title>
      </cc:Work>
    </rdf:RDF>
  </metadata>
  <g
     inkscape:label="Layer 1"
     inkscape:groupmode="layer"
     id="layer1"
     transform="translate(0,-1028.3622)">
    <path
       style="fill:#28ae95;fill-opacity:1;stroke:none"
       d="m 12,1031.3622 c -4.9773677,0 -9,4.0226 -9,9 0,4.9774 4.0226323,9 9,9 4.977368,0 9,-4.0226 9,-9 0,-4.9774 -4.022632,-9 -9,-9 z m 1.460733,1.2722 2.403142,2.9686 -3.392671,1.7435 0.329843,-1.6493 c -0.260777,-0.044 -0.527569,-0.094 -0.801047,-0.094 -2.6202972,0 -4.7591623,2.1389 -4.7591623,4.7592 0,1.131 0.4230187,2.1534 1.0837697,2.9686 l -1.0837697,1.3664 c -1.0372477,-1.139 -1.6492146,-2.673 -1.6492146,-4.335 0,-3.5417 2.8667882,-6.4085 6.4083769,-6.4085 0.393507,0 0.757003,0.026 1.130891,0.094 l 0.329842,-1.4136 z m 3.157068,3.2513 c 1.122104,1.1549 1.790576,2.7391 1.790576,4.4765 0,3.5416 -2.866788,6.4084 -6.408377,6.4084 -0.4581,0 -0.888505,-0.05 -1.319372,-0.1414 l -0.282722,1.4136 -2.4973824,-2.9686 3.4397904,-1.7434 -0.329842,1.6491 c 0.323035,0.069 0.645691,0.1414 0.989528,0.1414 2.620297,0 4.759162,-2.1388 4.759162,-4.7591 0,-1.2069 -0.482944,-2.3197 -1.22513,-3.1571 l 1.083769,-1.3194 z"
       id="path2985"
       inkscape:connector-curvature="0" />
  </g>
</svg>
