<?xml version="1.0" encoding="UTF-8" standalone="no"?>
<!-- Created using Karbon, part of Calligra: http://www.calligra.org/karbon -->

<svg
   xmlns:dc="http://purl.org/dc/elements/1.1/"
   xmlns:cc="http://creativecommons.org/ns#"
   xmlns:rdf="http://www.w3.org/1999/02/22-rdf-syntax-ns#"
   xmlns:svg="http://www.w3.org/2000/svg"
   xmlns="http://www.w3.org/2000/svg"
   xmlns:sodipodi="http://sodipodi.sourceforge.net/DTD/sodipodi-0.dtd"
   xmlns:inkscape="http://www.inkscape.org/namespaces/inkscape"
   width="24"
   height="24"
   id="svg2"
   version="1.1"
   inkscape:version="0.48.5 r10040"
   sodipodi:docname="vk_inactive.svg"
   inkscape:export-filename="/home/marguerite/openSUSE-Harlequin/vk_inactive.png"
   inkscape:export-xdpi="90"
   inkscape:export-ydpi="90">
  <metadata
     id="metadata18">
    <rdf:RDF>
      <cc:Work
         rdf:about="">
        <dc:format>image/svg+xml</dc:format>
        <dc:type
           rdf:resource="http://purl.org/dc/dcmitype/StillImage" />
        <dc:title></dc:title>
      </cc:Work>
    </rdf:RDF>
  </metadata>
  <sodipodi:namedview
     pagecolor="#ffffff"
     bordercolor="#666666"
     borderopacity="1"
     objecttolerance="10"
     gridtolerance="10"
     guidetolerance="10"
     inkscape:pageopacity="0"
     inkscape:pageshadow="2"
     inkscape:window-width="1024"
     inkscape:window-height="721"
     id="namedview16"
     showgrid="false"
     inkscape:zoom="13.906433"
     inkscape:cx="3.8622584"
     inkscape:cy="11.970214"
     inkscape:window-x="-2"
     inkscape:window-y="-3"
     inkscape:window-maximized="1"
     inkscape:current-layer="vk_inactive" />
  <defs
     id="defs4">
    <linearGradient
       id="gradient0"
       gradientTransform="matrix(2,0,0,2,-28,-88)"
       gradientUnits="objectBoundingBox"
       x1="0.050000001"
       y1="0.74999946"
       x2="0.75"
       y2="0.74999946"
       spreadMethod="pad">
      <stop
         stop-color="#ffffff"
         offset="0.00000000000"
         stop-opacity="1.00000000000"
         id="stop7" />
      <stop
         stop-color="#ffffff"
         offset="0.81999999285"
         stop-opacity="0.71372549020"
         id="stop9" />
      <stop
         stop-color="#ffffff"
         offset="1.00000000000"
         stop-opacity="1.00000000000"
         id="stop11" />
    </linearGradient>
  </defs>
  <g
     id="layer1"
     transform="translate(0,-168)">
    <g
       id="vk_inactive">
      <rect
         ry="0"
         y="168"
         x="0"
         height="24"
         width="24"
         id="rect3756"
         style="fill:none;fill-opacity:1;stroke:none" />
      <path
         style="fill:#1c2122;fill-opacity:1"
         d="m 1,173.99999 0,13 22,0 0,-13 z m 1,1 3,0 0,3 -3,0 z m 4,0 3,0 0,3 -3,0 z m 4,0 3,0 0,3 -3,0 z m 4,0 3,0 0,3 -3,0 z m 4,0 3.875,0 0,3 -3.875,0 z m -16,4 5,0 0,3 -5,0 z m 6,0 3,0 0,3 -3,0 z m 4,0 3,0 0,3 -3,0 z m 4,0 3,0 0,3 -3,0 z m 4,0 2,0 0,3 -2,0 z m -18,4 4,0 L 6,186 2,186 z m 5,0 15,0 L 22,186 7,186 z"
         id="path5518"
         inkscape:connector-curvature="0" />
    </g>
  </g>
</svg>
